# xmcd
#
# Track frame offsets:
#	182
#	15910
#	31607
#	45910
#	62845
#	75312
#	90640
#	106890
#	124640
#	139445
#
# Disc length: 2108 seconds
#
# Revision: 4
# Processed by: cddbd v1.5.2PL0 Copyright (c) Steve Scherf et al.
# Submitted via: audiograbber 1.83.01
#
DISCID=6a083a0a
DTITLE=Hansi Hinterseer - Wenn man sich lieb hat 1995
DYEAR=1995
DGENRE=Schlager
TTITLE0=Doch ich mach Dich glücklich
TTITLE1=Du bist das schönste Mädchen
TTITLE2=Da wo die Berge sind
TTITLE3=Wenn man sich lieb hat
TTITLE4=Nicht so schnell Annabel
TTITLE5=Ein Leben mit Dir
TTITLE6=Aber alles kam anders
TTITLE7=Du hast mich heut noch nicht geküßt
TTITLE8=Ich will Dich ganz für mich allein
TTITLE9=Eine Nacht in Monte Carlo
EXTD=
EXTT0=
EXTT1=
EXTT2=
EXTT3=
EXTT4=
EXTT5=
EXTT6=
EXTT7=
EXTT8=
EXTT9=
PLAYORDER=
